<svg xmlns="http://www.w3.org/2000/svg" width="260" height="30"><text transform="translate(-120.333 -33.154)"><tspan x="0" y="0" fill="#333" font-family="'Arial-BoldMT'" font-size="31.802">F</tspan><tspan x="18.949" y="0" fill="#333" font-family="'Arial-BoldMT'" font-size="31.802">u</tspan><tspan x="38.534" y="0" fill="#333" font-family="'Arial-BoldMT'" font-size="31.802">r</tspan><tspan x="51.705" y="0" fill="#333" font-family="'Arial-BoldMT'" font-size="31.802">n</tspan><tspan x="71.29" y="0" fill="#333" font-family="'Arial-BoldMT'" font-size="31.802">it</tspan><tspan x="92.305" y="0" fill="#333" font-family="'Arial-BoldMT'" font-size="31.802">u</tspan><tspan x="111.89" y="0" fill="#333" font-family="'Arial-BoldMT'" font-size="31.802">re Desi</tspan><tspan x="223.529" y="0" fill="#333" font-family="'Arial-BoldMT'" font-size="31.802">g</tspan><tspan x="243.114" y="0" fill="#333" font-family="'Arial-BoldMT'" font-size="31.802">n</tspan></text><g fill="#333"><path d="M.974 23.035V.271H16.58v3.851H5.57V9.51h9.503v3.852H5.57v9.674H.974zM30.715 23.035v-2.469c-.601.881-1.39 1.574-2.368 2.081s-2.011.761-3.098.761c-1.108 0-2.102-.243-2.981-.729-.88-.487-1.517-1.17-1.91-2.05s-.59-2.097-.59-3.649V6.545h4.363v7.578c0 2.318.08 3.739.24 4.262.161.523.453.938.878 1.242.424.306.963.459 1.615.459.745 0 1.413-.205 2.003-.614s.993-.916 1.211-1.521.326-2.089.326-4.449V6.545h4.363v16.49h-4.052zM43.623 23.035h-4.364V6.545h4.054v2.344c.693-1.107 1.316-1.837 1.871-2.189.554-.352 1.183-.527 1.887-.527.993 0 1.951.274 2.872.822L48.592 10.8c-.735-.476-1.419-.714-2.05-.714-.611 0-1.129.169-1.553.505-.425.336-.759.945-1.002 1.824-.243.881-.364 2.723-.364 5.528v5.092zM67.617 23.035h-4.364v-8.416c0-1.78-.093-2.932-.279-3.455-.187-.522-.489-.929-.908-1.219-.419-.289-.924-.436-1.514-.436-.756 0-1.435.208-2.034.621-.601.415-1.013.963-1.235 1.646s-.333 1.947-.333 3.789v7.469h-4.364V6.545h4.054v2.422c1.438-1.863 3.25-2.795 5.435-2.795.963 0 1.843.174 2.64.52.797.348 1.4.79 1.81 1.328.408.539.693 1.149.854 1.832.16.684.241 1.662.241 2.936v10.247zM72.201 4.309V.271h4.363v4.037h-4.363zm0 18.726V6.545h4.363v16.49h-4.363zM89.395 6.545v3.479h-2.981v6.646c0 1.346.028 2.13.085 2.353s.187.406.389.551c.201.146.447.218.737.218.403 0 .988-.14 1.755-.419l.372 3.385c-1.015.436-2.163.652-3.447.652-.787 0-1.496-.132-2.127-.396-.632-.264-1.095-.605-1.39-1.024s-.5-.985-.613-1.7c-.094-.508-.141-1.531-.141-3.074v-7.189H80.03V6.545h2.003V3.268l4.38-2.547v5.824h2.982zM104.071 23.035v-2.469c-.601.881-1.39 1.574-2.368 2.081s-2.011.761-3.098.761c-1.108 0-2.102-.243-2.981-.729-.88-.487-1.517-1.17-1.91-2.05s-.59-2.097-.59-3.649V6.545h4.363v7.578c0 2.318.08 3.739.24 4.262.161.523.453.938.878 1.242.424.306.963.459 1.615.459.745 0 1.413-.205 2.003-.614s.993-.916 1.211-1.521.326-2.089.326-4.449V6.545h4.363v16.49h-4.052zM116.979 23.035h-4.364V6.545h4.054v2.344c.693-1.107 1.316-1.837 1.871-2.189.554-.352 1.183-.527 1.887-.527.993 0 1.95.274 2.872.822l-1.351 3.805c-.735-.476-1.419-.714-2.05-.714-.611 0-1.129.169-1.553.505-.425.336-.759.945-1.002 1.824-.243.881-.364 2.723-.364 5.528v5.092zM135.523 17.787l4.348.73c-.559 1.594-1.441 2.808-2.646 3.641-1.207.834-2.716 1.25-4.527 1.25-2.868 0-4.99-.937-6.367-2.811-1.087-1.501-1.63-3.396-1.63-5.684 0-2.732.714-4.873 2.143-6.421s3.235-2.321 5.419-2.321c2.454 0 4.391.811 5.809 2.43 1.418 1.621 2.096 4.103 2.033 7.446h-10.932c.031 1.294.383 2.301 1.056 3.021.673.719 1.512 1.079 2.516 1.079.684 0 1.258-.187 1.724-.56.464-.371.816-.972 1.054-1.8zm.248-4.41c-.031-1.263-.357-2.223-.979-2.881-.621-.656-1.377-.986-2.267-.986-.953 0-1.739.348-2.36 1.041s-.927 1.636-.916 2.826h6.522zM154.101.271h8.402c1.895 0 3.338.145 4.332.435 1.336.394 2.479 1.093 3.432 2.097s1.678 2.232 2.174 3.688.746 3.248.746 5.381c0 1.873-.234 3.488-.699 4.845-.57 1.656-1.383 2.997-2.438 4.021-.799.776-1.875 1.382-3.23 1.817-1.016.32-2.371.48-4.068.48h-8.65V.271zm4.597 3.851V19.2h3.432c1.283 0 2.209-.072 2.779-.218.746-.186 1.363-.502 1.855-.947s.893-1.178 1.203-2.197.467-2.409.467-4.169-.156-3.11-.467-4.054c-.311-.941-.744-1.676-1.305-2.204-.559-.528-1.268-.886-2.127-1.071-.643-.145-1.9-.218-3.773-.218h-2.064zM187.397 17.787l4.348.73c-.559 1.594-1.441 2.808-2.646 3.641-1.207.834-2.715 1.25-4.527 1.25-2.867 0-4.99-.937-6.367-2.811-1.086-1.501-1.629-3.396-1.629-5.684 0-2.732.713-4.873 2.143-6.421 1.428-1.548 3.234-2.321 5.418-2.321 2.455 0 4.391.811 5.809 2.43 1.418 1.621 2.096 4.103 2.033 7.446h-10.932c.031 1.294.383 2.301 1.057 3.021.672.719 1.512 1.079 2.516 1.079.684 0 1.258-.187 1.723-.56.465-.371.816-.972 1.054-1.8zm.249-4.41c-.031-1.263-.357-2.223-.979-2.881-.621-.656-1.377-.986-2.266-.986-.953 0-1.74.348-2.361 1.041s-.926 1.636-.916 2.826h6.522zM194.792 18.33l4.379-.668c.186.85.564 1.494 1.133 1.934.57.44 1.367.66 2.393.66 1.127 0 1.977-.207 2.547-.621.383-.289.574-.678.574-1.164 0-.332-.104-.605-.311-.823-.219-.207-.705-.398-1.461-.575-3.52-.775-5.75-1.484-6.691-2.127-1.305-.891-1.957-2.127-1.957-3.711 0-1.429.564-2.63 1.693-3.604 1.127-.973 2.877-1.459 5.248-1.459 2.256 0 3.934.367 5.031 1.103s1.854 1.822 2.268 3.261l-4.115.762c-.176-.643-.51-1.135-1.002-1.477-.492-.341-1.193-.512-2.104-.512-1.15 0-1.973.16-2.471.481-.33.228-.496.522-.496.886 0 .311.145.574.436.791.393.29 1.752.699 4.076 1.227 2.324.528 3.945 1.176 4.867 1.941.912.776 1.367 1.858 1.367 3.246 0 1.511-.633 2.811-1.895 3.896-1.264 1.088-3.133 1.631-5.605 1.631-2.248 0-4.025-.455-5.334-1.366-1.31-.911-2.166-2.147-2.57-3.712zM214.81 4.309V.271h4.365v4.037h-4.365zm0 18.726V6.545h4.365v16.49h-4.365zM224.038 24.123l4.984.605c.082.58.273.979.574 1.195.414.311 1.066.466 1.957.466 1.139 0 1.992-.171 2.563-.513.383-.228.672-.596.869-1.102.135-.363.201-1.031.201-2.004v-2.406c-1.305 1.78-2.949 2.67-4.938 2.67-2.215 0-3.971-.937-5.264-2.811-1.016-1.48-1.521-3.322-1.521-5.527 0-2.765.664-4.877 1.994-6.336s2.984-2.189 4.961-2.189c2.041 0 3.723.896 5.047 2.687V6.545h4.084v14.799c0 1.945-.16 3.4-.48 4.363s-.771 1.718-1.352 2.267-1.354.979-2.32 1.289c-.969.311-2.193.466-3.674.466-2.795 0-4.777-.479-5.947-1.437s-1.754-2.171-1.754-3.642c0-.144.004-.32.016-.527zm3.897-9.675c0 1.75.34 3.03 1.018 3.843.678.813 1.514 1.22 2.508 1.22 1.066 0 1.967-.417 2.703-1.25.734-.833 1.102-2.067 1.102-3.704 0-1.707-.352-2.976-1.057-3.804-.703-.828-1.594-1.243-2.67-1.243-1.047 0-1.908.407-2.586 1.22s-1.018 2.051-1.018 3.718zM259.026 23.035h-4.363v-8.416c0-1.78-.094-2.932-.279-3.455-.186-.522-.488-.929-.908-1.219-.42-.289-.924-.436-1.514-.436a3.51 3.51 0 00-2.035.621c-.6.415-1.012.963-1.234 1.646s-.334 1.947-.334 3.789v7.469h-4.363V6.545h4.053v2.422c1.439-1.863 3.25-2.795 5.436-2.795.963 0 1.842.174 2.639.52.799.348 1.4.79 1.811 1.328.408.539.693 1.149.854 1.832.16.684.24 1.662.24 2.936v10.247z"/></g></svg>